<?xml version="1.0" encoding="UTF-8"?>
<svg id="Layer_2" data-name="Layer 2" xmlns="http://www.w3.org/2000/svg" viewBox="0 0 280.66 117.92">
  <defs>
    <style>
      .cls-1 {
        fill: #103246;
        stroke-width: 0px;
      }
    </style>
  </defs>
  <g id="Layer_1-2" data-name="Layer 1">
    <g>
      <g>
        <path class="cls-1" d="M35.08.6c14.4,0,23.47,8.59,23.95,19.72v1.21c0,10.28-7.62,18.99-17.9,20.32l-27.46,3.63v22.26c0,6.65,1.09,12.46,3.75,13.79H0c2.66-1.45,3.75-7.14,3.75-13.79V14.52C3.75,7.74,2.66,2.18,0,.6h35.08ZM31.21,41.86c13.55-2.3,18.03-10.77,18.03-19.24C49.24,7.62,38.83,1.94,29.16,1.94h-8.83c-2.9,0-5.44,2.06-6.05,4.96-.36,2.18-.6,4.84-.6,7.62v29.76l17.54-2.42Z"/>
        <path class="cls-1" d="M123.39.48c-2.54,1.09-3.75,8.83-3.75,13.91v41.74c0,15.24-10.52,26.25-26.37,26.25s-26.25-11.73-26.25-26.25V14.4c0-3.51-.24-6.65-.97-9.07-.6-2.42-1.45-4.11-2.78-4.84h17.42c-2.78,1.21-3.75,7.02-3.75,13.91v41.86c0,13.07,9.32,23.35,20.69,23.35,12.1,0,20.81-10.4,20.81-24.07V14.4c0-5.32-1.09-12.58-3.75-13.91h8.71Z"/>
        <path class="cls-1" d="M149.65,80.33c10.04,0,17.18-3.27,20.2-7.02v8.23h-42.83c1.21-.61,2.18-2.3,2.78-4.72.6-2.42.97-5.56.97-9.07V14.52c0-6.77-1.09-12.34-3.75-13.91h17.42c-2.66,1.45-3.75,7.26-3.75,13.91v55.04c0,1.81.12,3.87.48,5.56.48,3.02,2.3,5.2,7.26,5.2h1.21Z"/>
        <path class="cls-1" d="M171.06,69.8l7.38-6.41c.36,12.34,10.04,17.78,20.2,17.78,9.19,0,19.36-5.2,19.36-16.94,0-8.59-3.75-11.86-9.07-14.64l-28.07-13.67c-6.53-3.51-9.8-9.8-9.8-16.09,0-14.15,14.64-19.84,26.74-19.84,11.25,0,19.6,3.87,26.01,10.89l-6.41,5.93c-.24-12.7-10.52-15.48-19.84-15.48-9.56.12-16.57,7.74-16.57,15.48,0,6.29,3.63,9.68,8.95,12.46l27.7,13.55c6.65,3.51,9.8,10.28,9.8,16.45,0,15.12-13.67,23.11-28.79,23.11-12.46,0-21.29-4.48-27.58-12.58Z"/>
        <path class="cls-1" d="M261.91,80.33c8.71,0,15.73-3.27,18.75-7.02v8.23h-49.6c2.54-1.45,3.63-7.14,3.63-13.79v-11.01c0-9.68,5.56-17.3,14.64-17.3-7.86,0-14.64-6.17-14.64-16.09v-8.83c0-3.51-.24-6.65-.85-9.07-.6-2.42-1.57-4.11-2.78-4.84h49.6v8.35c-3.02-3.75-10.04-7.02-18.75-7.02h-10.77c-3.02,0-5.56,2.18-6.05,5.08-.36,1.81-.48,3.87-.48,5.69v15.36c0,7.5,1.57,10.52,9.8,10.52,3.87,0,12.58-.85,15.12-5.08v11.37c-2.18-3.99-11.01-5.08-15.12-5.08h-.48c-7.62,0-9.32,2.3-9.32,9.32v18.63c0,2.78.24,5.44.6,7.62.6,2.9,3.15,4.96,6.17,4.96h10.52Z"/>
      </g>
      <g>
        <path class="cls-1" d="M12.59,115.81v2.11H.28v-16.96h11.97v2.11H2.7v5.21h8.51v2.06H2.7v5.48h9.89Z"/>
        <path class="cls-1" d="M26.98,117.92l-5.09-7-5.02,7h-2.79l6.37-8.7-5.99-8.26h2.76l4.75,6.52,4.7-6.52h2.64l-5.98,8.19,6.42,8.77h-2.79Z"/>
        <path class="cls-1" d="M45.76,106.87c0,3.68-2.67,5.91-7.08,5.91h-4.19v5.14h-2.42v-16.96h6.61c4.41,0,7.08,2.23,7.08,5.91ZM43.34,106.87c0-2.42-1.62-3.8-4.72-3.8h-4.12v7.61h4.12c3.1,0,4.72-1.38,4.72-3.8Z"/>
        <path class="cls-1" d="M61.63,115.81v2.11h-12.31v-16.96h11.97v2.11h-9.55v5.21h8.5v2.06h-8.5v5.48h9.89Z"/>
        <path class="cls-1" d="M76.9,117.92l-3.66-5.21c-.34.02-.7.05-1.07.05h-4.19v5.16h-2.42v-16.96h6.62c4.41,0,7.08,2.23,7.08,5.91,0,2.62-1.36,4.51-3.73,5.35l4.02,5.69h-2.64ZM76.83,106.87c0-2.42-1.62-3.8-4.72-3.8h-4.12v7.63h4.12c3.1,0,4.72-1.41,4.72-3.83Z"/>
        <path class="cls-1" d="M83.17,100.96h2.42v16.96h-2.42v-16.96Z"/>
        <path class="cls-1" d="M103,115.81v2.11h-12.31v-16.96h11.97v2.11h-9.55v5.21h8.5v2.06h-8.5v5.48h9.89Z"/>
        <path class="cls-1" d="M121.51,100.96v16.96h-1.99l-10.18-12.65v12.65h-2.42v-16.96h1.99l10.18,12.65v-12.65h2.42Z"/>
        <path class="cls-1" d="M129.97,103.07h-5.82v-2.11h14.03v2.11h-5.82v14.85h-2.4v-14.85Z"/>
        <path class="cls-1" d="M140.82,100.96h2.42v16.96h-2.42v-16.96Z"/>
        <path class="cls-1" d="M159.14,113.68h-9.01l-1.87,4.24h-2.5l7.68-16.96h2.4l7.71,16.96h-2.54l-1.87-4.24ZM158.29,111.74l-3.66-8.31-3.66,8.31h7.32Z"/>
        <path class="cls-1" d="M166.07,100.96h2.42v14.85h9.18v2.11h-11.61v-16.96Z"/>
        <path class="cls-1" d="M190.35,103.07h-5.82v-2.11h14.03v2.11h-5.82v14.85h-2.4v-14.85Z"/>
        <path class="cls-1" d="M212.55,117.92l-3.66-5.21c-.34.02-.7.05-1.07.05h-4.19v5.16h-2.42v-16.96h6.62c4.41,0,7.08,2.23,7.08,5.91,0,2.62-1.36,4.51-3.73,5.35l4.02,5.69h-2.64ZM212.47,106.87c0-2.42-1.62-3.8-4.72-3.8h-4.12v7.63h4.12c3.1,0,4.72-1.41,4.72-3.83Z"/>
        <path class="cls-1" d="M229.63,113.68h-9.01l-1.87,4.24h-2.5l7.68-16.96h2.4l7.71,16.96h-2.54l-1.87-4.24ZM228.78,111.74l-3.66-8.31-3.66,8.31h7.32Z"/>
        <path class="cls-1" d="M250.4,100.96l-7.44,16.96h-2.4l-7.46-16.96h2.62l6.11,13.93,6.15-13.93h2.42Z"/>
        <path class="cls-1" d="M264.86,115.81v2.11h-12.31v-16.96h11.97v2.11h-9.55v5.21h8.5v2.06h-8.5v5.48h9.89Z"/>
        <path class="cls-1" d="M268.79,100.96h2.42v14.85h9.18v2.11h-11.61v-16.96Z"/>
      </g>
    </g>
  </g>
</svg>